HIERARCHY
ROOT HipCenter
{
    OFFSET 0.0 0.0 -0.0
    CHANNELS 6 Xposition Yposition Zposition Zrotation Xrotation Yrotation
    JOINT Spine
    {
        OFFSET 0.0 11.545520782470703 0.0
        CHANNELS 3 Zrotation Xrotation Yrotation
        JOINT ShoulderCenter
        {
            OFFSET 0.0 32.78681945800781 0.0
            CHANNELS 3 Zrotation Xrotation Yrotation
            JOINT LeftShoulder
            {
                OFFSET 19.048067092895508 0.0 0.0
                CHANNELS 3 Zrotation Xrotation Yrotation
                JOINT LeftElbow
                {
                    OFFSET 28.856948852539062 0.0 0.0
                    CHANNELS 3 Zrotation Xrotation Yrotation
                    JOINT LeftWrist
                    {
                        OFFSET 29.32770538330078 0.0 0.0
                        CHANNELS 3 Zrotation Xrotation Yrotation
                        JOINT LeftHand
                        {
                            OFFSET 3.777956008911133 0.0 0.0
                            CHANNELS 3 Zrotation Xrotation Yrotation
                            End Site
                            {
                                OFFSET 1.5111823081970215 0.0 0.0
                            }
                        }
                    }
                }
            }
            JOINT RightShoulder
            {
                OFFSET -19.048067092895508 0.0 0.0
                CHANNELS 3 Zrotation Xrotation Yrotation
                JOINT RightElbow
                {
                    OFFSET -28.856948852539062 0.0 0.0
                    CHANNELS 3 Zrotation Xrotation Yrotation
                    JOINT RightWrist
                    {
                        OFFSET -29.32770538330078 0.0 0.0
                        CHANNELS 3 Zrotation Xrotation Yrotation
                        JOINT RightHand
                        {
                            OFFSET -3.777956008911133 0.0 0.0
                            CHANNELS 3 Zrotation Xrotation Yrotation
                            End Site
                            {
                                OFFSET -1.5111823081970215 0.0 0.0
                            }
                        }
                    }
                }
            }
            End Site
            {
                OFFSET 0.0 13.114727973937988 0.0
            }
        }
    }
    JOINT LeftHip
    {
        OFFSET 13.483626365661621 0.0 0.0
        CHANNELS 3 Zrotation Xrotation Yrotation
        JOINT LeftKnee
        {
            OFFSET 0.0 -41.18320846557617 0.0
            CHANNELS 3 Zrotation Xrotation Yrotation
            JOINT LeftAnkle
            {
                OFFSET 0.0 -42.33255386352539 0.0
                CHANNELS 3 Zrotation Xrotation Yrotation
                JOINT LeftFoot
                {
                    OFFSET 0.0 -13.484530448913574 0.0
                    CHANNELS 3 Zrotation Xrotation Yrotation
                    End Site
                    {
                        OFFSET 0.0 0.0 5.39381217956543
                    }
                }
            }
        }
    }
    JOINT RightHip
    {
        OFFSET -13.483626365661621 0.0 0.0
        CHANNELS 3 Zrotation Xrotation Yrotation
        JOINT RightKnee
        {
            OFFSET 0.0 -41.18320846557617 0.0
            CHANNELS 3 Zrotation Xrotation Yrotation
            JOINT RightAnkle
            {
                OFFSET 0.0 -42.33255386352539 0.0
                CHANNELS 3 Zrotation Xrotation Yrotation
                JOINT RightFoot
                {
                    OFFSET 0.0 -13.484530448913574 0.0
                    CHANNELS 3 Zrotation Xrotation Yrotation
                    End Site
                    {
                        OFFSET 0.0 0.0 5.39381217956543
                    }
                }
            }
        }
    }
}
MOTION
Frames: 4
Frame Time: 0.03333333333333333
-52.70000076293945 65.80000305175781 -44.60000228881836 -31.218400439816804 -2.966987823604403 107.51587700623054 0.022744790144073112 16.128894366621985 1.3399255385991846 3.1498620760034476e-06 1.7098801606042303e-06 5.4122346915995605 101.0874229896349 5.24969423869596 -151.95843611818313 -5.388814692129162e-07 1.52211170669641e-06 39.981595366612666 -179.99999659796066 -60.01075953774762 -117.8970757744265 -6.3611093629270335e-15 -6.3611093629270335e-15 -3.1805546814635168e-15 -100.97128267896375 34.5684697849672 125.33385345649087 -2.473368305449435e-06 -2.8211023183586445e-06 -32.62258119663974 5.018883759964422e-06 -77.84515811075178 -53.56151829991486 0.0 0.0 0.0 135.06590255371216 -67.22556964441087 -171.30526230076427 61.99787534992583 23.54810502871335 -135.1174903463565 49.72502719160874 -39.603504635827406 117.04328708240526 -3.1805546814635168e-15 -8.827812596100317e-32 3.1805546814635168e-15 -65.80737312830968 -89.06800218252661 -103.76347280696565 -100.3143972498925 38.6046622121796 160.16768392783317 -77.01401224737852 -18.09534205696356 -119.67332720300874 3.1805546814635164e-15 2.2069531490250793e-32 7.951386703658791e-16
-52.79999923706055 65.9000015258789 -45.79999923706055 -31.900144212412172 -2.4802051217330883 104.97272368082541 -0.25255921765234796 16.203455862844457 1.3138384886931531 -8.974643782982125e-07 -1.1415933973366353e-06 6.6731477791253635 100.67125522823476 4.896726948955769 -153.3772555488398 3.2509333660998103e-06 1.173414148236568e-06 41.69882420062605 179.9999972228515 -57.17783556114769 -117.31228226825948 -3.1805546814635168e-15 1.3241718894150476e-31 -4.770832022195275e-15 -98.88747188558418 34.81011531862916 121.76677312815016 -1.6311302310961482e-06 -1.3081907356051508e-06 -30.361941707503966 -1.6628616259001922e-05 -74.5532844383843 -52.71035053129504 0.0 0.0 0.0 130.21188259063078 -68.13173154940834 -175.84939208781685 63.14755605676671 25.833831629277952 -135.6489821262904 46.199785348164866 -40.506949911662204 107.38339304645581 0.0 0.0 3.1805546814635164e-15 -109.896749280371 -87.81928453848406 -150.85884001873612 -99.17916147698666 36.20673557383262 160.36927968124118 -77.26487853932701 -17.27321760752816 -125.40088544303798 3.1805546814635168e-15 -4.4139062980501586e-32 -1.5902773407317584e-15
-52.60000228881836 65.5 -47.0 -32.31962606051914 -2.468849595660351 101.53242635244197 1.7527036982561541 15.696582107776727 0.6531061598747466 4.021775469372604e-06 6.615516383800123e-06 9.359074752032726 97.74014583571046 5.137917145139805 -156.15168115569713 -6.004760557734614e-06 -1.0457981735911255e-06 43.72214442086636 179.99998826153478 -56.21075725994656 -116.28504298022256 3.1805546814635168e-15 -6.361109362927033e-15 4.770832022195274e-15 -99.66539921151195 35.321926126109936 120.14662378254835 3.293812431889183e-06 8.097158311205637e-07 -28.42499771178444 -5.007656254441927e-06 -71.07466558190808 -49.816065059205364 -6.361109362927035e-15 0.0 0.0 123.91248325222091 -68.47562145133489 178.17836599777982 65.60113342987462 26.738454192371712 -139.84945420163916 47.859168820462145 -34.66591599421792 106.98894092037219 3.1805546814635168e-15 -8.827812596100317e-32 -3.1805546814635168e-15 -159.83585447807445 -88.30607223536377 159.63173230619523 -98.92518243749446 37.149594349870725 158.0182577837637 -77.36683801813992 -18.08845204724861 -128.04807757459054 -2.2069531490250793e-31 -3.1805546814635168e-15 -7.951386703658792e-15
-52.499996185302734 65.4000015258789 -48.10000228881836 -32.58570592126662 -2.4869074388118846 98.47319679960356 -2.0500821198158325 16.731881442419596 1.4396154663937337 8.667524132993049e-08 -1.32446429164683e-06 10.680988693900474 100.42673838377264 5.0897687680748325 -157.24636930628523 -1.4053897196121812e-06 -4.4504696660921875e-06 45.61437754781908 179.99999815231894 -57.97381183210408 -116.56168896455009 6.3611093629270335e-15 -6.3611093629270335e-15 4.770832022195275e-15 -94.24132297845244 34.45724450696461 115.75660749536111 -2.054620171592468e-06 -4.1319787576451786e-06 -26.372757509350834 -1.5667374756329658e-05 -69.13674387801201 -51.489813479272115 0.0 0.0 -6.3611093629270335e-15 117.9038258723271 -68.85494645704772 173.50196822844754 68.43122855748717 26.92215232843414 -144.12000051915365 51.16727146376809 -31.60509761259579 109.05494396084221 3.1805546814635168e-15 0.0 0.0 -179.00711559715455 -88.45078110025857 141.44526806314494 -97.88171446452908 38.698678069064606 155.8733795589137 -79.43127902643356 -19.260523184812566 -131.8566639568705 0.0 0.0 4.770832022195275e-15
